{
	"asset":{
		"generator":"Khronos glTF Blender I/O v4.5.47",
		"version":"2.0"
	},
	"extensionsUsed":[
		"KHR_lights_punctual"
	],
	"extensionsRequired":[
		"KHR_lights_punctual"
	],
	"extensions":{
		"KHR_lights_punctual":{
			"lights":[
				{
					"color":[
						1,
						1,
						1
					],
					"intensity":79.57747154594767,
					"type":"point",
					"name":"Light"
				}
			]
		}
	},
	"scene":0,
	"scenes":[
		{
			"name":"Scene",
			"nodes":[
				0,
				1,
				2,
				3,
				4
			]
		}
	],
	"nodes":[
		{
			"extensions":{
				"KHR_lights_punctual":{
					"light":0
				}
			},
			"name":"Light",
			"rotation":[
				-0.28416627645492554,
				0.7269423007965088,
				0.34203392267227173,
				0.5232754945755005
			],
			"translation":[
				-2.862905740737915,
				2.9252114295959473,
				-1.8830008506774902
			]
		},
		{
			"camera":0,
			"name":"Camera",
			"rotation":[
				-0.20997299253940582,
				0.3857799470424652,
				0.09062844514846802,
				0.8937962055206299
			],
			"translation":[
				7.358891487121582,
				4.958309173583984,
				6.925790786743164
			]
		},
		{
			"mesh":0,
			"name":"Plane",
			"translation":[
				0.1032937616109848,
				2.178225517272949,
				0.14538425207138062
			]
		},
		{
			"mesh":1,
			"name":"Cylinder",
			"scale":[
				0.11604368686676025,
				0.11604368686676025,
				0.11604368686676025
			],
			"translation":[
				0.1032937616109848,
				2.060377597808838,
				0.14538425207138062
			]
		},
		{
			"mesh":2,
			"name":"Plane.001",
			"translation":[
				0.1032937616109848,
				1.227650761604309,
				0.14538425207138062
			]
		}
	],
	"cameras":[
		{
			"name":"Camera",
			"perspective":{
				"aspectRatio":1.7777777777777777,
				"yfov":0.39959652046304894,
				"zfar":100,
				"znear":0.10000000149011612
			},
			"type":"perspective"
		}
	],
	"materials":[
		{
			"doubleSided":true,
			"name":"Material.002",
			"pbrMetallicRoughness":{
				"metallicFactor":0,
				"roughnessFactor":0.5
			}
		},
		{
			"doubleSided":true,
			"name":"Material.003",
			"pbrMetallicRoughness":{
				"baseColorFactor":[
					0.4019749164581299,
					0.40197810530662537,
					0.4019778370857239,
					1
				],
				"metallicFactor":0.5849056839942932,
				"roughnessFactor":0.5
			}
		},
		{
			"doubleSided":true,
			"name":"Material.004",
			"pbrMetallicRoughness":{
				"baseColorFactor":[
					0.4019749164581299,
					0.40197810530662537,
					0.4019778370857239,
					1
				],
				"metallicFactor":0.5849056839942932,
				"roughnessFactor":0.5
			}
		}
	],
	"meshes":[
		{
			"name":"Plane",
			"primitives":[
				{
					"attributes":{
						"POSITION":0,
						"NORMAL":1,
						"TEXCOORD_0":2,
						"TANGENT":3
					},
					"indices":4,
					"material":0
				}
			]
		},
		{
			"name":"Cylinder",
			"primitives":[
				{
					"attributes":{
						"POSITION":5,
						"NORMAL":6,
						"TEXCOORD_0":7
					},
					"indices":8,
					"material":1
				}
			]
		},
		{
			"name":"Plane.001",
			"primitives":[
				{
					"attributes":{
						"POSITION":9,
						"NORMAL":10,
						"TEXCOORD_0":11
					},
					"indices":12,
					"material":2
				}
			]
		}
	],
	"accessors":[
		{
			"bufferView":0,
			"componentType":5126,
			"count":10584,
			"max":[
				1,
				0.1677974909543991,
				1
			],
			"min":[
				-1,
				0,
				-1
			],
			"type":"VEC3"
		},
		{
			"bufferView":1,
			"componentType":5126,
			"count":10584,
			"type":"VEC3"
		},
		{
			"bufferView":2,
			"componentType":5126,
			"count":10584,
			"type":"VEC2"
		},
		{
			"bufferView":3,
			"componentType":5126,
			"count":10584,
			"type":"VEC4"
		},
		{
			"bufferView":4,
			"componentType":5123,
			"count":15876,
			"type":"SCALAR"
		},
		{
			"bufferView":5,
			"componentType":5126,
			"count":293,
			"max":[
				1,
				1,
				1
			],
			"min":[
				-1.0000001192092896,
				-7.281513690948486,
				-1
			],
			"type":"VEC3"
		},
		{
			"bufferView":6,
			"componentType":5126,
			"count":293,
			"type":"VEC3"
		},
		{
			"bufferView":7,
			"componentType":5126,
			"count":293,
			"type":"VEC2"
		},
		{
			"bufferView":8,
			"componentType":5123,
			"count":936,
			"type":"SCALAR"
		},
		{
			"bufferView":9,
			"componentType":5126,
			"count":96,
			"max":[
				1,
				0,
				1
			],
			"min":[
				-1,
				-0.1287296712398529,
				-1
			],
			"type":"VEC3"
		},
		{
			"bufferView":10,
			"componentType":5126,
			"count":96,
			"type":"VEC3"
		},
		{
			"bufferView":11,
			"componentType":5126,
			"count":96,
			"type":"VEC2"
		},
		{
			"bufferView":12,
			"componentType":5123,
			"count":564,
			"type":"SCALAR"
		}
	],
	"bufferViews":[
		{
			"buffer":0,
			"byteLength":127008,
			"byteOffset":0,
			"target":34962
		},
		{
			"buffer":0,
			"byteLength":127008,
			"byteOffset":127008,
			"target":34962
		},
		{
			"buffer":0,
			"byteLength":84672,
			"byteOffset":254016,
			"target":34962
		},
		{
			"buffer":0,
			"byteLength":169344,
			"byteOffset":338688,
			"target":34962
		},
		{
			"buffer":0,
			"byteLength":31752,
			"byteOffset":508032,
			"target":34963
		},
		{
			"buffer":0,
			"byteLength":3516,
			"byteOffset":539784,
			"target":34962
		},
		{
			"buffer":0,
			"byteLength":3516,
			"byteOffset":543300,
			"target":34962
		},
		{
			"buffer":0,
			"byteLength":2344,
			"byteOffset":546816,
			"target":34962
		},
		{
			"buffer":0,
			"byteLength":1872,
			"byteOffset":549160,
			"target":34963
		},
		{
			"buffer":0,
			"byteLength":1152,
			"byteOffset":551032,
			"target":34962
		},
		{
			"buffer":0,
			"byteLength":1152,
			"byteOffset":552184,
			"target":34962
		},
		{
			"buffer":0,
			"byteLength":768,
			"byteOffset":553336,
			"target":34962
		},
		{
			"buffer":0,
			"byteLength":1128,
			"byteOffset":554104,
			"target":34963
		}
	],
	"buffers":[
		{
			"byteLength":555232,
			"uri":"Table-48882f6d73a41d39fdd8bd9b062b8835.bin"
		}
	]
}
